HIERARCHY
ROOT Hips
{
  OFFSET 263.056 91.6644 -274.608
  CHANNELS 6 Xposition Yposition Zposition Zrotation Xrotation Yrotation
  JOINT LeftUpLeg
  {
    OFFSET 8.64259 1.95398 -2.38835
    CHANNELS 3 Zrotation Xrotation Yrotation
    JOINT LeftLeg
    {
      OFFSET 43.7702 0 0
      CHANNELS 3 Zrotation Xrotation Yrotation
      JOINT LeftFoot
      {
        OFFSET 40.6238 0 0
        CHANNELS 3 Zrotation Xrotation Yrotation
        JOINT LeftToeBase
        {
          OFFSET 12.7242 0 0
          CHANNELS 3 Zrotation Xrotation Yrotation
          End Site
          {
            OFFSET 0 0 0
          }
        }
      }
    }
  }
  JOINT RightUpLeg
  {
    OFFSET -8.2249 1.95398 -2.59336
    CHANNELS 3 Zrotation Xrotation Yrotation
    JOINT RightLeg
    {
      OFFSET 43.5653 0 0
      CHANNELS 3 Zrotation Xrotation Yrotation
      JOINT RightFoot
      {
        OFFSET 40.6238 0 0
        CHANNELS 3 Zrotation Xrotation Yrotation
        JOINT RightToeBase
        {
          OFFSET 12.7242 0 0
          CHANNELS 3 Zrotation Xrotation Yrotation
          End Site
          {
            OFFSET 0 0 0
          }
        }
      }
    }
  }
  JOINT Spine
  {
    OFFSET 0.165834 0.87714 6.61349
    CHANNELS 3 Zrotation Xrotation Yrotation
    JOINT Spine1
    {
      OFFSET 7.38963 1.71661e-005 0
      CHANNELS 3 Zrotation Xrotation Yrotation
      JOINT Spine2
      {
        OFFSET 11.9445 1.14441e-005 0
        CHANNELS 3 Zrotation Xrotation Yrotation
        JOINT Spine3
        {
          OFFSET 14.7254 4.19617e-005 0
          CHANNELS 3 Zrotation Xrotation Yrotation
          JOINT Spine4
          {
            OFFSET 10.9679 0 0
            CHANNELS 3 Zrotation Xrotation Yrotation
            JOINT RightShoulder
            {
              OFFSET 2.46616 -1.6653 3.69651
              CHANNELS 3 Zrotation Xrotation Yrotation
              JOINT RightArm
              {
                OFFSET 13.0012 0 0
                CHANNELS 3 Zrotation Xrotation Yrotation
                JOINT RightForeArm
                {
                  OFFSET 28.7848 1.52588e-005 0
                  CHANNELS 3 Zrotation Xrotation Yrotation
                  JOINT RightHand
                  {
                    OFFSET 26.5688 1.52588e-005 0
                    CHANNELS 3 Zrotation Xrotation Yrotation
                    End Site
                    {
                      OFFSET 0 0 0
                    }
                  }
                }
              }
            }
            JOINT LeftShoulder
            {
              OFFSET 2.38034 -1.29275 -3.7523
              CHANNELS 3 Zrotation Xrotation Yrotation
              JOINT LeftArm
              {
                OFFSET 16.3182 6.10352e-005 0
                CHANNELS 3 Zrotation Xrotation Yrotation
                JOINT LeftForeArm
                {
                  OFFSET 27.0901 0 0
                  CHANNELS 3 Zrotation Xrotation Yrotation
                  JOINT LeftHand
                  {
                    OFFSET 24.5451 1.52588e-005 0
                    CHANNELS 3 Zrotation Xrotation Yrotation
                    End Site
                    {
                      OFFSET 0 0 0
                    }
                  }
                }
              }
            }
            JOINT Neck
            {
              OFFSET 5.0226 -0.0266342 0
              CHANNELS 3 Zrotation Xrotation Yrotation
              JOINT Head
              {
                OFFSET 6.69364 2.86102e-005 0
                CHANNELS 3 Zrotation Xrotation Yrotation
                End Site
                {
                  OFFSET 0 0 0
                }
              }
            }
          }
        }
      }
    }
  }
}
MOTION
Frames:	9
Frame Time:	0.0416667
25.4555 91.2157 12.8065 88.408 -52.858 83.6737 -170.313 30.1893 85.5941 -26.8648 10.3041 -5.28049 57.9414 1.14416 8.71813 39.9647 12.112 -3.14238 176.384 -5.72986 83.6096 -42.3178 -9.59294 -7.80459 45.6593 4.16782 3.78495 50.7074 4.48398 22.1446 1.32015 7.55415 -89.0471 11.7438 3.07308 1.5757 0.0756826 3.13944 1.43883 -22.4721 2.45753 2.42661 -2.45943 2.45754 2.42661 82.7959 -48.4858 -112.281 19.1194 -10.3666 -8.62117 -19.2545 -5.00508 -75.8935 -12.6436 -0.826155 2.39163 -97.5925 -43.7562 65.2874 -42.9725 4.07689 27.1672 1.05517 11.8376 -14.7096 5.75781 0.570103 4.92216 10.4102 -1.72465 0.102686 -1.03647 -1.68796 0.934019 
30.8346 91.5537 16.5726 89.2073 -50.9573 84.2 -170.178 27.9529 84.3539 -31.3424 11.7936 -6.03315 61.6041 4.93022 11.0111 35.3793 7.2463 -8.1757 177.992 0.27213 83.9131 -53.5935 -3.67544 -7.7372 38.2864 5.23674 5.39038 35.7105 0.507711 7.74919 1.08029 7.55064 -89.0786 11.7543 2.58139 1.5648 0.0851281 2.64778 1.44962 -22.456 1.99186 2.26827 -2.44331 1.99189 2.26827 82.9221 -48.6289 -112.037 21.5063 -11.0624 -3.3569 -16.7913 -7.39135 -69.8389 -12.8092 -0.720915 1.28493 -98.2117 -43.4115 64.1925 -42.4284 4.32957 25.0089 1.87321 11.4279 -17.2405 5.23356 0.519024 4.76286 9.89805 -1.29973 0.742231 -1.08504 -1.42262 0.632096 
35.9263 92.5964 20.2451 90.145 -48.46 84.5458 -171.031 23.3752 82.9152 -31.321 11.5864 -5.58567 62.7967 5.8747 10.8245 33.8173 5.75779 -9.59216 178.288 7.05554 84.1922 -62.1303 4.66029 -6.61414 40.766 3.19794 3.35721 30.5786 -0.260848 7.88193 0.739022 7.61366 -89.1185 11.6319 1.88317 1.56105 -0.0385529 1.95004 1.47665 -22.5724 1.32707 2.05475 -2.55974 1.32706 2.05476 82.8219 -50.3344 -111.578 22.2916 -12.2048 1.15503 -16.3567 -9.87408 -62.7399 -11.9695 -0.584022 0.0820325 -99.2105 -42.9554 62.4542 -41.3666 5.24497 21.2081 2.41748 9.73014 -21.0792 7.41085 0.621876 3.93965 9.34228 -1.26223 0.456869 -0.915238 -1.30936 1.14084 
40.9416 94.0417 23.8706 90.5542 -45.2484 86.1276 -172.243 18.1239 83.2562 -28.8999 12.0929 -4.48621 63.0429 6.20315 10.928 36.465 8.13282 -13.1224 178.344 13.4276 86.2274 -65.7987 7.07489 -5.30671 46.2947 1.45513 1.54904 30.0801 -0.199984 5.28005 0.369461 7.63107 -89.3647 11.606 1.03268 1.15981 -0.0649714 1.08271 1.11323 -22.5976 0.636389 1.41651 -2.58494 0.6364 1.41652 83.2263 -51.3024 -110.643 23.5478 -12.9761 5.82935 -14.3355 -12.62 -56.642 -13.2347 -0.81174 1.94653 -99.4932 -42.6763 61.8986 -39.1194 6.03138 16.8126 3.45539 7.82753 -27.3881 10.5355 0.853108 3.94981 8.56908 -0.891676 0.615942 -0.834665 -0.974237 1.31835 
45.9112 95.4012 27.1719 90.4984 -42.2053 87.0383 -173.6 13.0886 83.4152 -25.7867 15.61 -3.35107 62.3875 5.57095 11.0477 37.3404 9.06571 -9.57636 178.207 19.3739 87.5874 -64.2817 7.86198 -4.10268 50.4636 0.285971 0.51252 34.9093 0.337684 6.2316 0.00184759 7.60495 -89.5902 11.6617 0.195845 0.79582 -0.00943842 0.230685 0.786424 -22.5425 -0.0523784 0.817888 -2.52985 -0.0523652 0.817886 83.0655 -51.9159 -110.671 25.4818 -12.4303 10.9703 -11.8157 -14.1431 -49.3149 -11.6253 -0.664505 1.03412 -100.051 -42.6691 61.0275 -36.166 5.58538 13.0148 4.23776 4.41091 -35.287 13.1525 1.02567 3.80449 7.36173 -0.623556 0.998192 -0.6621 -0.77298 1.6876 
50.5389 96.5703 30.7299 90.4186 -38.8321 87.2013 -174.574 7.41856 83.7508 -21.3118 17.6325 -2.32304 61.1616 4.22718 9.5528 38.9889 10.8011 -6.92466 178.014 23.2008 88.1243 -57.485 7.63455 -2.96895 56.1248 -0.870305 -0.409855 38.9772 0.783283 6.25904 -0.402727 7.59397 -89.6683 11.6878 -0.645389 0.728725 0.0167772 -0.612703 0.75642 -22.5188 -0.834569 0.501067 -2.50613 -0.834562 0.50107 82.9895 -52.8283 -110.477 26.8248 -10.7352 15.4016 -9.27612 -15.7167 -42.2885 -8.25358 -0.564838 1.68931 -99.832 -42.1692 61.1554 -33.0094 5.27986 8.46669 4.10083 1.47151 -42.8856 16.0041 1.21353 3.67366 6.09846 -0.453609 -0.0332952 -0.0568744 -0.361552 2.71553 
54.9035 97.0075 34.3405 89.955 -35.641 87.0332 -174.466 2.73352 84.5243 -17.889 19.4876 -2.15996 60.0532 2.75363 7.95525 42.2473 14.3247 -4.29072 178.061 25.3253 88.1253 -45.4782 9.67527 -1.63151 59.5469 -1.63477 -0.91065 40.1013 1.00267 8.35163 -0.741282 7.55162 -89.724 11.7751 -1.34441 0.69244 0.104648 -1.31265 0.75094 -22.4358 -1.49035 0.256301 -2.42312 -1.49036 0.256302 82.8388 -53.9334 -110.328 27.4363 -8.75929 19.8026 -7.77939 -16.9996 -36.6217 -5.14949 -0.475128 2.75272 -100.051 -41.3596 60.4608 -28.7976 5.4277 3.56664 6.31656 2.48363 -49.5124 16.0811 1.13138 3.14159 4.62093 -0.523846 -0.186368 1.30286 -0.381358 2.47008 
59.2619 96.5696 38.1841 89.1247 -34.2971 85.6836 -174.368 -1.10379 84.4612 -16.1228 19.3883 -2.08997 60.8754 3.35345 8.3449 44.8012 16.5042 -6.64566 178.881 25.4823 87.1551 -28.9185 6.63896 -1.21058 62.8464 -2.4438 -1.40453 42.7127 1.11845 4.55304 -0.910196 7.5068 -89.6657 11.8671 -1.65255 0.843466 0.196842 -1.61384 0.915393 -22.3463 -1.82964 0.307673 -2.33362 -1.82966 0.307665 82.5342 -54.8259 -110.47 27.7807 -6.6211 23.9326 -7.45842 -17.9207 -32.8256 -1.04697 -0.268156 3.36061 -100.291 -40.4784 59.6905 -25.1508 3.3611 -0.459026 8.0415 1.85139 -57.0475 17.1037 1.39129 4.2525 3.81224 -0.703296 -0.686705 2.78726 -0.429361 2.67948 
63.761 95.4955 42.101 88.1297 -32.2894 84.9868 -173.973 -3.69509 85.2936 -16.7299 22.4787 -1.88956 61.8283 5.7361 11.4399 48.6264 19.5555 -9.43049 -179.758 24.5906 86.3219 -10.7578 4.9679 -1.68381 63.0848 -2.40299 -1.39443 49.1221 1.33228 0.759742 -1.18377 7.4697 -89.708 11.9443 -2.21607 0.8219 0.274878 -2.17774 0.918671 -22.2753 -2.36058 0.11753 -2.26267 -2.36058 0.117538 83.2855 -54.2866 -109.573 28.4989 -5.81342 27.2337 -7.16887 -19.2566 -30.1347 1.02275 -0.158654 3.33713 -99.7803 -39.4816 60.0577 -22.1254 1.18969 -4.88118 9.72708 1.83513 -62.0756 17.8029 1.44346 4.23877 4.69385 -0.61879 -1.24799 2.63961 -0.232814 2.89035 
